<?xml version="1.0" standalone="no"?>
<!DOCTYPE svg PUBLIC "-//W3C//DTD SVG 20010904//EN"
 "http://www.w3.org/TR/2001/REC-SVG-20010904/DTD/svg10.dtd">
<svg version="1.0" xmlns="http://www.w3.org/2000/svg"
 width="512.000000pt" height="512.000000pt" viewBox="0 0 512.000000 512.000000"
 preserveAspectRatio="xMidYMid meet">
<metadata>
Created by potrace 1.11, written by Peter Selinger 2001-2013
</metadata>
<g transform="translate(0.000000,512.000000) scale(0.100000,-0.100000)"
fill="#000000" stroke="none">
<path d="M2378 5116 c-1 -2 -34 -6 -73 -10 -38 -3 -97 -10 -130 -16 -33 -6
-76 -13 -95 -16 -61 -10 -262 -62 -335 -87 -444 -154 -799 -391 -1123 -752
-28 -32 -52 -61 -52 -63 0 -2 -17 -25 -39 -51 -21 -25 -64 -84 -95 -131 -31
-47 -61 -92 -66 -100 -28 -40 -107 -196 -162 -320 -48 -106 -127 -346 -142
-430 -2 -14 -7 -36 -10 -50 -44 -189 -65 -557 -44 -780 30 -315 132 -654 286
-950 44 -85 187 -304 239 -369 268 -330 540 -552 884 -722 292 -145 563 -222
916 -259 82 -8 474 -7 489 2 5 3 36 8 69 12 67 7 88 10 195 33 41 8 86 17 99
19 46 9 288 92 373 128 115 50 371 185 388 205 3 3 41 30 85 60 44 30 82 58
85 61 17 21 78 59 85 52 5 -4 5 -2 2 4 -5 8 24 44 36 44 9 0 211 205 266 270
91 109 91 108 147 190 237 347 400 761 440 1124 3 28 8 62 11 76 11 57 10 441
-2 540 -39 327 -110 568 -252 859 -42 85 -79 159 -84 165 -5 6 -44 65 -88 131
-121 181 -242 321 -405 470 -84 77 -238 196 -305 237 -20 12 -38 25 -41 29
-11 14 -250 141 -340 180 -333 145 -629 209 -1002 214 -113 2 -208 2 -210 1z
m417 -230 c22 -3 60 -8 85 -12 25 -3 79 -12 120 -21 41 -8 86 -17 100 -19 49
-9 206 -57 290 -89 111 -42 300 -133 300 -143 0 -5 6 -9 13 -9 20 0 232 -136
306 -198 296 -245 489 -484 649 -807 76 -154 172 -423 175 -493 1 -24 5 -41 8
-39 4 2 12 -31 19 -74 7 -42 14 -86 16 -97 25 -118 25 -495 0 -645 -56 -343
-147 -602 -304 -867 -320 -541 -838 -927 -1446 -1080 -76 -19 -149 -33 -162
-30 -13 2 -21 1 -19 -3 16 -25 -454 -46 -635 -28 -225 23 -491 94 -700 188
-52 24 -108 51 -125 61 -16 10 -49 28 -73 39 -58 28 -254 161 -322 219 -252
212 -437 434 -575 686 -42 77 -105 203 -105 210 0 3 -9 24 -19 48 -36 78 -99
287 -111 369 -1 4 -5 22 -10 39 -5 18 -12 48 -15 68 -3 20 -8 48 -10 61 -20
100 -27 413 -13 566 7 73 29 209 43 274 4 14 9 38 12 55 3 16 27 97 55 180
172 521 529 971 1001 1260 91 55 251 137 325 167 162 63 364 122 394 115 10
-3 16 -2 13 3 -4 7 30 15 110 26 11 1 33 5 49 8 15 3 65 8 110 12 44 3 82 7
84 9 5 4 327 -4 367 -9z"/>
<path d="M1941 3544 c-17 -14 -34 -39 -38 -55 -5 -16 -8 -197 -8 -403 0 -229
-3 -372 -9 -369 -5 4 -6 1 0 -8 5 -8 9 -183 10 -389 2 -349 3 -379 23 -440 54
-172 184 -286 371 -327 11 -2 805 -5 913 -3 15 0 17 12 17 110 l0 110 -452 1
c-249 0 -461 2 -471 4 -32 6 -106 55 -127 84 -49 70 -52 92 -52 336 0 126 0
237 1 245 1 14 63 16 551 15 l551 0 -3 110 -3 110 -543 1 c-298 0 -545 4 -549
7 -3 4 -7 156 -7 337 l-1 331 205 -1 c113 -1 361 -1 553 -1 l347 1 0 110 0
110 -624 0 -624 0 -31 -26z"/>
</g>
</svg>
